<?xml version="1.0" encoding="utf-8" ?><svg xmlns="http://www.w3.org/2000/svg" xmlns:xlink="http://www.w3.org/1999/xlink" width="768" height="1014" viewBox="0 0 768 1014"><clipPath id="cl_5"><rect width="768" height="1014"/></clipPath><g clip-path="url(#cl_5)"><path transform="translate(0 -330)" d="M375.974 365.093C385.553 363.602 400.292 365.815 409.13 369.967C414.284 372.51 433.282 378.213 434.382 384.284C435.865 392.472 436.906 397.153 440.512 405.685C442.249 406.458 445.861 408.026 447.203 409.185C463.92 423.625 459.048 449.369 441.609 460.118C437.985 477.922 429.695 509.516 407.912 511.601C392.701 513.057 379.219 506.753 365.802 500.644C362.184 504.655 358.091 510.152 355.511 514.887C373.372 565.003 383.148 611.617 405.914 660.07C414.899 650.962 428.108 640.84 436.258 631.567C461.621 602.707 475.907 591.394 514.117 583.409L531.001 521.783C536.648 500.748 542.49 477.449 548.739 456.686C581.821 454.606 619.912 450.504 652.089 449.475C653.767 451.011 655.883 453.359 657.504 455.058L635.482 542.8C629.839 565.677 623.87 592.332 617.229 614.626C602.319 613.057 583.148 609.637 567.992 607.378C563.377 621.174 557.37 635.991 551.836 649.446C540.41 677.23 530.536 703.036 504.814 720.788C491.049 730.489 473.986 734.308 457.398 731.399C430.332 726.386 415.4 704.718 400.93 683.655C374.396 707.668 332.442 741.52 295.887 744.58C293.73 757.121 292.544 767.389 294.603 780.082C298.96 807.16 307.896 832.513 313.856 859.321C323.824 904.155 330.69 952.149 320.848 997.644C318.415 1008.9 313.308 1021.05 309.411 1031.97C305.102 1044.26 301.032 1056.63 297.203 1069.07C287.571 1100.2 281.281 1132.27 278.439 1164.74C276.265 1191.64 277.738 1213.14 283.423 1239.46C289.538 1267.76 354.796 1254.36 359.97 1260.39C360.178 1261.42 360.542 1262.01 359.911 1262.65C356.096 1266.49 337.224 1267.53 331.893 1268.08C337.567 1270.66 356.748 1266.62 361.842 1273.09C361.552 1275.52 361.959 1274.66 360.395 1276.4C352.561 1278.44 320.127 1272.98 316.909 1276.72C322.166 1284.05 351.598 1286.13 351.17 1293.57C343.419 1299.95 310.669 1285.79 300.999 1282.85C290.968 1279.79 281.008 1271.81 275.083 1263.12C268.315 1249.54 261.509 1215.87 261.325 1200.64C260.73 1151.39 273.175 1100.06 285.756 1052.65C291.186 1032.18 300.462 1012.03 303.685 990.938C305.126 971.504 307.932 939.028 302.723 920.483C294.134 889.908 265.17 851.204 246.154 825.731C248.502 836.104 252.28 846.774 254.729 856.78C260.808 881.619 270.602 918.746 270.473 944.225C270.241 989.865 251.024 1041.67 232.06 1082.98C225.004 1098.35 210.912 1127.62 208.459 1143.37C205.877 1159.95 209.458 1202.89 212.879 1220.17C218.796 1224.94 225.582 1227.66 232.842 1229.73C238.885 1231.44 247.212 1230.7 251.784 1234.69C252.588 1236.69 252.529 1235.81 251.857 1238.05C244.568 1246.3 225.099 1236.46 216.902 1232.71C221.384 1237.18 226.014 1241.5 230.785 1245.66C236.183 1250.36 252.42 1260.73 250.574 1268.02C241.683 1272.38 207.495 1232.81 202.23 1231.62L201.715 1232.45C200.791 1251.77 232.202 1267.92 229.657 1275.36C222.655 1277.88 209.172 1263.66 204.813 1258.79C194.603 1247.43 189.796 1232.22 191.624 1217.06C191.941 1214.49 194.606 1206.83 194.256 1205.16C181.545 1144.46 204.572 1105.06 227.245 1049.77C235.361 1029.82 241.974 1009.29 247.028 988.355C249.197 978.978 251.396 969.255 252.194 959.634C254.229 935.09 232.568 902.545 220.537 880.957C209.063 860.599 198.213 839.897 188.001 818.879C177.717 798.107 165.781 773.498 159.885 750.988C155.63 734.734 153.907 717.922 154.775 701.144C159.95 612.392 216.424 549.397 290.384 507.606C307.044 498.192 326.444 487.665 340.749 474.953C329.225 457.988 324.036 448.285 321.965 427.819C321.269 420.936 315.083 414.384 325.792 408.809C332.032 384.328 351.603 369.02 375.974 365.093ZM493.237 600.691C496.176 602.445 499.977 604 501.239 607.672C504.851 618.186 491.665 640.402 479.335 634.809C478.541 633.144 478.343 632.457 477.083 631.156C474.358 631.623 470.073 635.424 467.322 636.572C461.689 638.921 454.643 638.561 448.763 638.554C441.845 643.242 419.676 666.123 412.673 673.11C420.893 687.568 432.832 705.305 447.76 713.545C456.284 717.536 463.396 719.079 472.921 717.918C507.923 713.652 522.912 680.157 535.909 651.873C542.856 636.757 549.914 621.221 555.754 605.625C543.13 603.48 529.251 601.229 516.522 599.898C516.083 599.3 513.026 595.072 512.745 594.828C505.664 596.191 499.99 598.172 493.237 600.691ZM335.383 713.477C354.265 701.85 376.409 685.055 393.502 670.72C383.545 650.847 374.311 630.62 365.818 610.079C359.357 594.627 353.101 576.855 345.011 562.559C337.38 589.552 331.119 621.1 323.782 649.068C319.816 664.451 315.538 679.751 310.953 694.961C307.583 705.942 303.507 717.458 300.437 728.389C313.908 725.046 323.353 720.594 335.383 713.477Z"/><path fill="#A4B1D5" transform="translate(0 -330)" d="M329.666 486.3C341.645 497.466 340.239 499.136 356.102 508.636C352.07 517.041 344.892 550.507 342.47 561.025C336.295 587.328 329.976 613.597 323.512 639.83C318.58 659.417 312.967 679.171 307.033 698.48C303.89 708.708 300.253 718.717 297.561 729.092C294.977 729.156 291.987 729.112 289.621 728.959C283.365 728.556 273.707 723.574 270.324 718.371C247.219 682.846 292.006 608.615 308.585 575.432C314.907 562.323 329.473 546.466 331.731 532.225C335.741 506.938 307.627 508.438 300.021 527.551C279.354 579.487 257.27 634.145 247.524 689.307C244.997 703.606 251.347 721.784 260.816 732.348C270.769 741.76 279.81 744.449 293.145 744.963C288.858 768.361 291.308 778.022 296.314 800.996C283.649 810.239 265.778 822.953 251.581 829.086C239.754 815.53 227.75 791.691 215.682 778.71C219.777 790.98 237.589 808.426 242.504 821.167C243.978 824.987 244.644 829.343 245.412 833.386C233.024 836.422 213.737 838.63 200.827 839.455C194.301 828.154 188.281 814.492 182.54 802.898C160.375 758.139 150.91 721.05 161.399 670.85C165.824 649.673 168.415 644.214 177.109 624.575C197.367 578.818 233.709 546.926 274.58 519.814C284.723 513.086 297.164 506.997 307.72 500.593C315.264 496.017 322.323 491.27 329.666 486.3Z"/><path fill="#BDE6A7" transform="translate(0 -330)" d="M553.815 465.492C579.633 464.352 613.86 463.142 639.26 460.603C633.041 485.611 626.776 513.331 620.009 537.964L619.1 542.174C617.978 546.428 616.719 550.91 615.73 555.17C614.425 560.796 613.043 566.404 611.584 571.992C611.093 573.994 610.164 578.369 609.567 580.143C607.974 585.036 607.201 589.817 605.726 594.536C601.74 593.788 585.984 591.86 583.686 590.764L580.515 590.705C576.418 589.304 547.174 585.731 540.215 584.519C539.36 584.563 538.002 584.481 537.101 584.454C530.721 583.613 528.354 582.399 522.687 579.674L533.3 541.211C533.387 540.67 535.564 533.595 535.88 532.42C541.845 510.267 547.501 487.478 553.815 465.492Z"/><path fill="#B9A076" transform="translate(0 -330)" d="M570.513 529.873L571.805 530.77C572.966 531.884 572.879 531.89 574.435 532.159L574.981 534.168C577.809 534.587 580.424 531.918 581.377 531.808C584.15 531.487 598.572 535.434 600.419 536.752C599.488 540.564 596.703 539.463 596.868 542.205L599.576 543.705L599.788 544.889C597.33 547.524 596.163 547.194 594.34 549.358C595.021 553.066 597.306 552.761 596.52 557.252C595.667 562.127 590.332 562.002 589.078 565.72L589.357 566.142C591.457 569.364 592.061 573.186 590.113 576.706C587.158 576.539 586.823 576.377 584.525 578.289L583.196 580.678C583.03 586.596 580.669 588.494 580.515 590.705C576.418 589.304 547.174 585.731 540.215 584.519C539.36 584.563 538.002 584.481 537.101 584.454C530.721 583.613 528.354 582.399 522.687 579.674L533.3 541.211L534.084 541.652C534.068 544.04 533.7 543.848 534.875 545.697C536.791 546.403 537.833 546.598 539.786 546.987C538.773 547.948 537.234 549.751 537.307 551.116C537.632 557.204 538.603 555.282 534.882 560.283L535.438 560.687L536.605 560.156L536.266 561.663C539.593 562.231 539.67 562.112 541.977 559.423C543.42 559.472 543.673 559.826 544.815 560.698C546.7 558.281 544.438 556.958 546.46 554.68C550.232 555.672 549.561 556.933 553.023 556.905C555.93 554.69 555.015 553.833 554.066 550.438L554.284 550.465L554.847 551.351L556.191 550.988C556.554 551.539 556.754 551.895 557.301 552.28L557.798 552.3L559.615 551.356C562.778 552.125 566.044 553.011 568.512 550.788C567.837 548.547 565.617 550.477 563.775 548.695C566.191 545.679 566.701 545.214 566.365 541.226C568.129 541.118 568.735 541.227 570.225 540.388C571.657 535.88 567.318 535.506 570.513 529.873Z"/><path fill="#C0A77F" transform="translate(0 -330)" d="M570.513 529.873L571.805 530.77C572.966 531.884 572.879 531.89 574.435 532.159L574.981 534.168C577.809 534.587 580.424 531.918 581.377 531.808C584.15 531.487 598.572 535.434 600.419 536.752C599.488 540.564 596.703 539.463 596.868 542.205L599.576 543.705L599.788 544.889C597.33 547.524 596.163 547.194 594.34 549.358C591.568 551.222 584.155 548.264 580.908 547.381L572.815 548.562C579.549 552.408 586.171 556.691 593.717 558.484L594.253 559.395C589.65 564.053 571.628 560.156 565.884 558.316C562.035 556.563 558.252 559.808 556.459 556.037C556.82 554.779 557.044 553.559 557.301 552.28L557.798 552.3L559.615 551.356C562.778 552.125 566.044 553.011 568.512 550.788C567.837 548.547 565.617 550.477 563.775 548.695C566.191 545.679 566.701 545.214 566.365 541.226C568.129 541.118 568.735 541.227 570.225 540.388C571.657 535.88 567.318 535.506 570.513 529.873Z"/><path fill="#CAC0AE" transform="translate(0 -330)" d="M591.844 559.263C584.614 555.849 584.045 555.794 576.557 556.392L575.932 555.761C577.397 555.642 578.827 555.697 580.017 554.893C580.122 555.045 569.729 548.328 568.091 547.046L568.567 547.271L569.338 546.977L572.815 548.562C579.549 552.408 586.171 556.691 593.717 558.484L594.253 559.395C589.65 564.053 571.628 560.156 565.884 558.316L566.18 556.904C572.322 560.277 584.895 559.894 591.844 559.263Z"/><path fill="#6B8388" transform="translate(0 -330)" d="M540.902 580.205C541.225 581.517 541.254 582.092 542.124 583.147C543.323 583.756 543.277 583.447 544.993 583.075C547.755 579.643 548.796 578.122 550.247 573.983C556.47 573.907 560.382 573.285 559.32 580.621L560.51 581.5C562.77 580.773 561.863 579.302 564.588 578.294C567.371 580.955 564.024 582.614 565.242 585.439L566.338 585.523C566.758 583.358 567.075 581.667 567.319 579.463C568.872 578.936 568.236 579.011 569.958 579.481C570.862 582.372 568.247 583.126 569.793 584.599L571.331 583.748C572.41 579.983 570.438 580.251 571.96 577.534C574.228 576.762 578.605 577.609 581.165 577.934C582.302 579.284 581.951 578.925 582.283 580.925L583.196 580.678C583.03 586.596 580.669 588.494 580.515 590.705C576.418 589.304 547.174 585.731 540.215 584.519C540.294 582.886 540.568 581.792 540.902 580.205Z"/><path fill="#5A6266" transform="translate(0 -330)" d="M537.101 584.454L538.262 583.684C539.244 581.806 539.409 580.454 539.818 578.412C537.316 579.924 534.765 581.846 531.785 580.869C530.107 579.503 530.095 578.066 529.708 575.956L530.43 576.1L532.23 579.382C534.215 580.436 533.354 580.328 535.458 579.861C538.513 577.529 539.338 575.454 537.24 572.253C535.206 571.55 534.289 572.267 531.85 572.918L533.313 571.46C535.424 570.689 535.694 570.61 537.845 571.215C539.964 573.036 539.334 572.458 539.89 575.807L540.477 575.995C541.219 574.217 541.561 572.819 543.045 571.664C548.135 571.637 581.314 575.119 584.525 578.289L583.196 580.678L582.283 580.925C581.951 578.925 582.302 579.284 581.165 577.934C578.605 577.609 574.228 576.762 571.96 577.534C570.438 580.251 572.41 579.983 571.331 583.748L569.793 584.599C568.247 583.126 570.862 582.372 569.958 579.481C568.236 579.011 568.872 578.936 567.319 579.463C567.075 581.667 566.758 583.358 566.338 585.523L565.242 585.439C564.024 582.614 567.371 580.955 564.588 578.294C561.863 579.302 562.77 580.773 560.51 581.5L559.32 580.621C560.382 573.285 556.47 573.907 550.247 573.983C548.796 578.122 547.755 579.643 544.993 583.075C543.277 583.447 543.323 583.756 542.124 583.147C541.254 582.092 541.225 581.517 540.902 580.205C540.568 581.792 540.294 582.886 540.215 584.519C539.36 584.563 538.002 584.481 537.101 584.454Z"/><path fill="#6B8388" transform="translate(0 -330)" d="M540.902 580.205C541.892 576.982 541.693 575.056 543.816 573.266C545.036 573.2 545.972 573.006 547.055 573.522L547.003 573.742C546.089 576.447 545.497 580.007 543.73 581.491L540.902 580.205Z"/><path fill="#817F78" transform="translate(0 -330)" d="M571.805 530.77L572.395 530.582C585.296 526.399 569.981 510.874 578.438 507.937L579.436 508.543C579.574 510.645 579.755 509.794 578.493 511.783L577.312 511.415C577.212 513.464 577.504 514.016 578.119 515.964C580.864 514.663 580.449 513.292 582.84 513.254L584.03 514.799C583.769 516.096 583.653 516.451 583.201 517.703C584.551 518.613 583.955 518.393 586.014 518.029C588.487 515.203 585.867 513.637 589.374 511.166L590.723 511.476C591.012 513.388 590.045 515.813 588.774 517.252C582.59 524.252 578.325 516.777 578.348 526.113L578.957 526.621L581.462 524.623L582.226 524.943C582.123 526.278 582.032 527.032 581.807 528.352C582.198 528.719 599.475 533.722 600.496 533.673C600.599 533.668 600.701 533.656 600.804 533.647C601.441 532.474 602.115 531.32 602.824 530.188C604.701 529.793 603.955 529.786 605.967 530.776C607.261 534.242 606.348 534.265 608.54 536.377C608.788 536.843 609.927 539.05 610.153 539.347L612.089 540.75L612.208 541.59L611.875 541.588C614.61 544.048 616.132 545.349 619.1 542.174C617.978 546.428 616.719 550.91 615.73 555.17C614.425 560.796 613.043 566.404 611.584 571.992C611.093 573.994 610.164 578.369 609.567 580.143C607.974 585.036 607.201 589.817 605.726 594.536C601.74 593.788 585.984 591.86 583.686 590.764L580.515 590.705C580.669 588.494 583.03 586.596 583.196 580.678L584.525 578.289C586.823 576.377 587.158 576.539 590.113 576.706C592.061 573.186 591.457 569.364 589.357 566.142L589.078 565.72C590.332 562.002 595.667 562.127 596.52 557.252C597.306 552.761 595.021 553.066 594.34 549.358C596.163 547.194 597.33 547.524 599.788 544.889L599.576 543.705L596.868 542.205C596.703 539.463 599.488 540.564 600.419 536.752C598.572 535.434 584.15 531.487 581.377 531.808C580.424 531.918 577.809 534.587 574.981 534.168L574.435 532.159C572.879 531.89 572.966 531.884 571.805 530.77Z"/><path fill="#B9A076" transform="translate(0 -330)" d="M607.442 578.582C609.288 579.14 608.633 578.596 609.567 580.143C607.974 585.036 607.201 589.817 605.726 594.536C601.74 593.788 585.984 591.86 583.686 590.764L580.515 590.705C580.669 588.494 583.03 586.596 583.196 580.678L586.109 580.026L587.164 579.379L587.585 580.027C587.006 582.189 586.96 581.298 587.755 583.386C590.37 584.362 591.504 583.548 593.959 582.171L595.917 582.412L597.397 583.618C599.599 581.314 604.361 579.796 607.442 578.582Z"/><path fill="#CAC0AE" transform="translate(0 -330)" d="M586.109 580.026L587.164 579.379L587.585 580.027C587.006 582.189 586.96 581.298 587.755 583.386C590.37 584.362 591.504 583.548 593.959 582.171L595.917 582.412C595.401 585.545 595.925 585.503 594.089 587.418C590.093 589.153 586.69 586.281 583.389 587.924C583.482 588.871 583.581 589.818 583.686 590.764L580.515 590.705C580.669 588.494 583.03 586.596 583.196 580.678L586.109 580.026Z"/><path fill="#5A6266" transform="translate(0 -330)" d="M586.109 580.026L587.164 579.379L587.585 580.027C587.006 582.189 586.96 581.298 587.755 583.386C590.37 584.362 591.504 583.548 593.959 582.171L593.553 584.955C591.192 586.917 586.785 586.675 584.442 584.742C585.277 582.967 585.564 582.355 586.015 580.44L586.109 580.026Z"/><path fill="#E1EBD9" transform="translate(0 -330)" d="M607.442 578.582C609.288 579.14 608.633 578.596 609.567 580.143C606.003 580.923 599.211 584.091 597.397 583.618C599.599 581.314 604.361 579.796 607.442 578.582Z"/><path fill="#C0A77F" transform="translate(0 -330)" d="M595.257 565.107L595.194 566.956C596.689 568.528 597.758 568.331 599.164 570.077C601.656 573.171 604.798 575.69 607.442 578.582C604.361 579.796 599.599 581.314 597.397 583.618L595.917 582.412L593.959 582.171C591.504 583.548 590.37 584.362 587.755 583.386C586.96 581.298 587.006 582.189 587.585 580.027L587.164 579.379L586.109 580.026L583.196 580.678L584.525 578.289C586.823 576.377 587.158 576.539 590.113 576.706C590.634 577.294 590.921 577.364 591.622 577.795L592.557 577.302C594.654 572.533 594.406 571.067 593.966 566.34L595.257 565.107Z"/><path fill="#C0A77F" transform="translate(0 -330)" d="M610.153 539.347L612.089 540.75L612.208 541.59L611.875 541.588C614.61 544.048 616.132 545.349 619.1 542.174C617.978 546.428 616.719 550.91 615.73 555.17C614.137 556.385 606.167 557.797 603.891 556.808L603.412 555.548C604.914 553.327 610.287 552.702 613.462 551.925L613.264 551.549L606.627 551.634C606.572 550.381 606.551 549.126 606.565 547.871C606.623 544.398 607.579 541.8 610.153 539.347Z"/><path fill="#B9A076" transform="translate(0 -330)" d="M595.257 565.107C598.384 563.596 597.616 564.967 600.633 564.093L601.576 564.668C601.75 566.642 601.327 567.797 600.86 569.708L601.591 569.925C602.848 567.397 602.738 566.458 606.235 566.185C608.835 565.982 610.071 566.874 611.388 568.928L611.584 571.992C611.093 573.994 610.164 578.369 609.567 580.143C608.633 578.596 609.288 579.14 607.442 578.582C604.798 575.69 601.656 573.171 599.164 570.077C597.758 568.331 596.689 568.528 595.194 566.956L595.257 565.107Z"/><path fill="#817F78" transform="translate(0 -330)" d="M559.14 491.975C563.892 492.42 568.639 492.92 573.379 493.473C572.005 498.976 571.177 500.224 573.263 505.525L573.429 505.937C572.275 508.86 568.933 514.264 565.554 514.424C564.574 512.739 564.997 512.103 565.107 509.853C564.011 508.184 562.52 508.384 560.58 507.775C547.203 503.579 547.754 523.217 545.693 533.07C555.658 531.523 555.131 532.05 565.427 528.873C565.626 526.925 565.783 526.565 566.528 524.744C568.15 523.836 567.391 523.973 569.394 524.414C571.495 526.857 568.876 525.779 570.513 529.873C567.318 535.506 571.657 535.88 570.225 540.388C568.735 541.227 568.129 541.118 566.365 541.226C566.701 545.214 566.191 545.679 563.775 548.695C565.617 550.477 567.837 548.547 568.512 550.788C566.044 553.011 562.778 552.125 559.615 551.356L557.798 552.3L557.301 552.28C556.754 551.895 556.554 551.539 556.191 550.988L554.847 551.351L554.284 550.465L554.066 550.438C555.015 553.833 555.93 554.69 553.023 556.905C549.561 556.933 550.232 555.672 546.46 554.68C544.438 556.958 546.7 558.281 544.815 560.698C543.673 559.826 543.42 559.472 541.977 559.423C539.67 562.112 539.593 562.231 536.266 561.663L536.605 560.156L535.438 560.687L534.882 560.283C538.603 555.282 537.632 557.204 537.307 551.116C537.234 549.751 538.773 547.948 539.786 546.987C537.833 546.598 536.791 546.403 534.875 545.697C533.7 543.848 534.068 544.04 534.084 541.652L533.3 541.211C533.387 540.67 535.564 533.595 535.88 532.42L536.386 533.616C538.24 534.243 540.78 533.593 542.838 533.282C543.857 525.838 545.858 513.712 547.872 506.69C554.041 500.7 556.383 500.102 559.14 491.975Z"/><path fill="#C0A77F" transform="translate(0 -330)" d="M534.084 541.652C537.213 540.195 542.334 539.529 544.562 542.747L544.32 543.963L545.331 544.724C542.829 544.91 542.09 545.761 540.176 547.301L539.786 546.987C537.833 546.598 536.791 546.403 534.875 545.697C533.7 543.848 534.068 544.04 534.084 541.652Z"/><path fill="#E1EBD9" transform="translate(0 -330)" d="M540.176 547.301C542.09 545.761 542.829 544.91 545.331 544.724C544.789 548.175 543.5 551.034 539.716 551.235L539.094 550.052C539.422 549.13 539.724 548.162 540.176 547.301Z"/><path fill="#E1EBD9" transform="translate(0 -330)" d="M560.424 493.663C563.03 494.27 568.975 494.347 571.88 494.468C571.443 497.111 571.064 499.149 570.41 501.743C567.65 497.564 568.17 498.127 563.319 497.833C560.795 499.756 561.813 503.878 561.639 506.799L559.185 506.924C558.394 505.827 560.13 496.174 560.424 493.663Z"/><path fill="#E1EBD9" transform="translate(0 -330)" d="M566.39 531.529L566.838 532.135C566.753 534.267 565.674 535.435 564.458 537.256C564.74 538.921 565.094 539.92 565.611 541.51L564.946 542.659C563.255 543.078 562.192 542.455 560.505 541.842L559.599 542.283L558.898 541.826C560.503 536.988 562.842 534.814 566.39 531.529Z"/><path fill="#E1EBD9" transform="translate(0 -330)" d="M563.636 498.717C565.228 498.941 565.784 499.08 567.312 499.582C568.063 501.573 567.417 501.991 566.61 504.462C565.388 504.26 564.408 503.99 563.222 503.678C562.336 501.786 562.991 501.214 563.636 498.717Z"/><path fill="#91A099" transform="translate(0 -330)" d="M602.238 497.113C607.249 497.191 612.332 497.225 617.334 497.366C616.603 509.406 620.821 504.591 622.32 514.083C623.168 519.446 617.441 532.717 620.009 537.964L619.1 542.174C616.132 545.349 614.61 544.048 611.875 541.588L612.208 541.59L612.089 540.75L610.153 539.347C609.927 539.05 608.788 536.843 608.54 536.377C611.64 537.384 611.887 538.034 614.55 537.346C615.367 536.269 619.428 518.167 619.268 516.347C617.217 512.457 614.97 513.797 610.98 512.884C608.925 512.413 607.519 511.586 605.472 512.277C603.244 515.453 605.316 515.633 602.597 518.238C594.558 516.375 599.469 509.133 600.875 502.981C601.33 500.992 601.84 499.134 602.238 497.113Z"/><path fill="#E1EBD9" transform="translate(0 -330)" d="M603.061 498.333L615.483 498.445C614.786 502.019 614.581 509.061 612.285 511.388C610.69 511.174 610.82 511.432 609.714 510.589C611.243 508.067 612.502 505.355 611.089 502.666C608.959 501.645 607.805 501.889 605.494 502.029C603.218 503.644 605.303 504.476 603.309 507.302L602.297 507.135C601.468 505.312 602.663 500.739 603.061 498.333Z"/><path fill="#E1EBD9" transform="translate(0 -330)" d="M606.226 502.99L609.502 503.63C610.565 505.316 610.021 505.893 609.709 508.331C608.216 508.285 607.524 508.211 606.048 507.978C605.134 506.115 605.741 505.448 606.226 502.99Z"/><path fill="#E1EBD9" transform="translate(0 -330)" d="M431.492 393.64C435.779 395.69 439.043 410.762 439.762 415.705C443.323 440.192 439.977 465.298 429.975 487.907C423.142 487.322 415.755 485.836 409.146 483.967C403.305 482.316 396.767 479.686 390.864 478.852C401.28 486.318 416.44 488.648 428.863 490.221C428.453 491.087 428.033 491.949 427.604 492.805C414.649 518.561 388.834 509.101 368.555 498.821C367.198 497.997 367.258 498.05 365.662 497.874C362.769 499.541 360.123 503.628 357.897 506.396C347.619 500.682 339.396 494.307 332.537 484.608C336.833 480.978 339.728 479.772 343.766 475.158C332.88 456.295 326.071 452.189 325.425 427.629C360.183 420.96 399.52 408.96 431.492 393.64Z"/><path transform="translate(0 -330)" d="M406.503 405.664C426.879 404.495 432.767 423.061 428.857 440.223C426.421 450.917 417.883 460.888 406.042 458.406C404.501 458.084 404.6 458.15 403.895 456.934C406.308 455.867 406.192 456.321 409.218 456.688C413.93 456.158 416.59 454.301 420.545 451.938C406.866 455.438 395.223 452.795 390.214 437.949C387.997 431.377 388.478 424.194 391.552 417.976C394.965 411.14 399.513 407.972 406.503 405.664Z"/><path fill="#E1EBD9" transform="translate(0 -330)" d="M407.332 408.295C410.271 408.042 415.549 408.185 418.125 409.639C420.005 413.173 415.612 415.784 414.239 419.35C413.541 421.162 413.216 423.124 412.869 425.014C414.826 426.158 417.161 427.348 419.182 428.443L412.262 431.499C412.787 436.495 413.467 442.441 416.667 446.407L418.838 449.142L416.117 450.571C390.678 456.747 379.88 417.063 407.332 408.295Z"/><path fill="#E1EBD9" transform="translate(0 -330)" d="M296.479 804.472C298.219 806.384 309.017 850.542 310.5 856.802C321.156 901.767 327.804 951.294 318.179 996.985C314.695 1010.79 309.132 1023.38 304.509 1036.88C284.358 1095.72 268.522 1160.31 277.542 1222.73C278.565 1229.81 280.139 1242.56 284.737 1248.06C295.808 1261.31 320.62 1261.31 336.504 1261.83C341.688 1261.91 351.423 1260.16 355.931 1260.82L356.357 1261.57C352.08 1265.79 319.784 1264.4 315.748 1267.46L316.267 1268.55C323.385 1270.92 356.747 1271.9 358.46 1273.79C354.595 1276.1 318.984 1271.09 312.199 1273.1C311.207 1273.4 311.148 1274.4 310.677 1275.65C319.057 1285.34 344.918 1289.2 347.173 1292.48L346.378 1293.28C345.383 1293.36 343.467 1293.35 342.437 1293.06C325.305 1288.4 288.841 1280.22 279.045 1264.39C268.66 1247.61 263.3 1204.45 264.387 1185.42C267.044 1138.9 277.935 1092.37 290.307 1047.58C295.04 1030.45 302.525 1013.94 305.647 996.293C308.929 976.2 310.644 944.718 306.384 924.759C299.203 891.12 272.437 859.827 253.383 831.638C269.609 823.041 281.455 814.924 296.479 804.472Z"/><path fill="#E1EBD9" transform="translate(0 -330)" d="M242.649 836.908C245.15 836.637 244.655 836.292 246.374 837.342C249.034 841.48 258.254 881.22 259.828 888.425C263.343 904.511 268.065 928.771 267.822 944.959C267.134 990.887 248.329 1039.82 229.573 1081.36C222.083 1097.95 207.958 1127.55 205.463 1144.62C203.037 1161.22 207.135 1203.91 210.326 1221.54C216.107 1227.21 226.935 1231.73 234.867 1233.12C238.087 1233.68 248.429 1233.74 249.314 1237.33C239.777 1244.58 214.585 1225.22 208.588 1227.22C208.501 1233.03 244.855 1259.53 251.315 1268.11C241.893 1263.9 222.174 1246.1 214.429 1238.34C210.961 1234.76 204.026 1225.75 198.85 1228.43C197.666 1231.05 199.01 1235.65 199.741 1238.34C204.116 1254.42 218.528 1263.1 229.133 1274.74C208.765 1264.64 190.853 1242.12 194.499 1218C194.961 1214.95 197.94 1206.92 197.293 1204.31C181.727 1141.37 217.314 1086.94 237.839 1030.33C243.236 1015.4 256.888 969.894 254.925 953.205C251.195 921.484 216.649 871.949 202.403 842.226C215.885 841.002 229.311 839.227 242.649 836.908Z"/><path fill="#E1EBD9" transform="translate(0 -330)" d="M317.527 515.875C322.949 515.557 328.191 517.751 329.123 523.635C331.641 539.524 317.036 554.087 310.284 567.345C289.702 607.763 255.764 659.601 262.299 706.58C264.052 714.386 269.655 723.542 276.837 727.408C301.429 740.646 336.286 717.209 355.335 703.56C382.301 684.239 408.233 662.634 431.876 639.696C454.785 617.469 469.402 594.98 503.167 588.519C507.968 587.575 522.182 583.176 526.217 585.543C523.655 591.245 497.937 594.989 492.046 598.596C490.952 599.266 487.561 598.527 485.678 599.87C487.535 603.541 498.526 603.055 499.404 611.04C492.911 607.892 488.988 605.69 481.912 604.131C485.661 607.487 492.602 610.715 497.292 613.254C498.511 615.102 499.215 616.354 497.558 618.05C493.736 617.851 488.805 611.445 484.612 612.544C485.129 615.507 493.033 618.293 496.31 621.392C497.049 627.207 487.458 632.427 482.508 633.149C480.571 632.498 481.264 632.96 479.919 631.317C482.195 627.958 487.33 629.009 488.64 624.306C487.77 622.269 485.984 621.503 484.023 620.26C483.46 620.875 482.889 621.484 482.313 622.086C470.021 634.91 464.071 636.059 447.112 636.428C412.014 666.551 383.278 703.198 341.291 725.372C322.755 735.161 299.424 748.295 277.831 739.8C233.396 722.318 253.793 667.836 264.144 635.363C271.946 611.024 280.345 586.88 289.331 562.953C293.063 553.036 296.715 542.882 300.883 533.139C304.75 524.1 307.541 518.551 317.527 515.875Z"/><path fill="#817F78" transform="translate(0 -330)" d="M644.339 452.426C646.385 452.163 646.895 452.035 648.894 452.467C649.068 452.892 649.242 453.317 649.416 453.742C639.381 496.657 621.283 567.966 611.822 607.296C603.073 606.544 569.976 602.023 561.277 599.999C562.74 598.371 564.251 597.038 564.539 594.87C564.089 593.119 562.845 592.371 561.422 591.13L561.75 590.604C564.154 590.443 570.221 591.688 573.014 592.088C584.459 593.662 595.876 595.429 607.262 597.388C612.941 578.579 617.799 556.774 622.387 537.42C628.261 512.64 636.962 483.757 641.623 459.168L640.519 458.223C611.038 460.122 581.543 461.815 552.038 463.301C543.084 493.215 536.131 524.903 526.752 554.875C523.522 565.196 523.574 571.37 518.311 582.205C519.457 571.314 525.471 553.961 528.575 542.481L550.717 459.396C557.875 458.205 574.387 457.512 582.109 456.969C602.86 455.563 623.604 454.048 644.339 452.426Z"/><path fill="#E1EBD9" transform="translate(0 -330)" d="M558.777 606.059C560.76 606.196 561.597 606.167 563.457 606.957C564.14 608.267 564.815 609.565 564.117 611.136C547.687 647.246 537.529 697.404 501.45 719.789C461.053 744.851 428.305 721.209 406.266 686.871L403.156 681.8C405.381 679.58 408.078 677.246 410.429 675.112C420.423 691.087 432.74 710.522 450.921 717.863C473.898 727.14 503.037 713.831 516.19 694.148C533.503 668.239 547.38 635.112 558.777 606.059Z"/><path fill="#E1EBD9" transform="translate(0 -330)" d="M354.643 521.52C357.307 523.902 364.491 548.545 365.828 553.16C377.182 592.349 387.135 624.526 403.674 661.721C401.058 664.173 398.556 666.753 395.443 668.519C385.495 649.23 376.355 629.535 368.045 609.486C360.958 592.381 355.169 574.98 345.757 559.016C348.623 546.827 351.368 533.501 354.643 521.52Z"/><path fill="#E1EBD9" transform="translate(0 -330)" d="M376.86 367.7C393.192 365.546 404.546 370.219 418.702 377.346C399.525 385.139 380.124 392.368 360.523 399.025C350.845 402.522 338.699 405.822 328.775 408.648C330.208 402.551 332.821 396.793 336.466 391.7C346.22 378.095 360.53 370.337 376.86 367.7Z"/><path fill="#ABDED7" transform="translate(0 -330)" d="M422.795 379.32C423.475 379.185 424.172 379.155 424.862 379.23C428.188 379.575 433.131 385.594 432.694 388.847C424.863 398.387 346.929 419.603 332.739 423.097C330.361 423.575 328.175 423.989 325.778 424.355C319.977 421.648 324.574 412.168 327.293 411.613C359.802 404.978 392.236 391.768 422.795 379.32Z"/><path fill="#817F78" transform="translate(0 -330)" d="M652.465 453.858C652.986 454.293 654.4 455.638 654.24 456.419C651.572 469.407 647.939 482.239 644.581 495.066C634.614 533.135 626.435 572.01 615.847 609.878L614.511 609.235C613.933 605.937 620.776 582.164 622.123 576.676L641.015 499.756C643.644 489.388 649.434 462.051 652.465 453.858Z"/><path fill="#817F78" transform="translate(0 -330)" d="M530.129 585.361C538.511 587.399 550.439 588.705 559.384 590.281C557.248 591.478 556.801 591.67 555.348 593.733C554.937 596.529 555.179 595.894 556.517 598.867C554.786 599.498 553.277 599.004 551.397 598.685C540.524 597.088 527.878 595.57 517.212 593.556C522.853 591.438 527.497 590.592 530.129 585.361Z"/><path fill="#5A6266" transform="translate(0 -330)" d="M516.461 596.775C518.101 596.577 521.761 596.536 523.25 596.939C537.165 600.702 607.029 606.897 613.468 611.507C609.02 611.564 519.984 598.422 516.461 596.775Z"/><path fill="#E1EBD9" transform="translate(0 -330)" d="M440.994 408.984C453.679 412.206 444.332 416.139 444.917 423.285C445.056 424.978 447.576 425.922 449.177 426.89C447.059 434.715 441.494 426.011 446.369 444.114C447.383 445.694 447.472 445.803 447.954 447.594C446.672 449.468 445.281 449.57 442.877 450.617C443.761 433.225 444.023 426.278 440.994 408.984Z"/></g></svg>